<?xml version="1.0" encoding="UTF-8" standalone="no"?>
<svg
   xmlns:osb="http://www.openswatchbook.org/uri/2009/osb"
   xmlns:dc="http://purl.org/dc/elements/1.1/"
   xmlns:cc="http://creativecommons.org/ns#"
   xmlns:rdf="http://www.w3.org/1999/02/22-rdf-syntax-ns#"
   xmlns:svg="http://www.w3.org/2000/svg"
   xmlns="http://www.w3.org/2000/svg"
   xmlns:xlink="http://www.w3.org/1999/xlink"
   xmlns:sodipodi="http://sodipodi.sourceforge.net/DTD/sodipodi-0.dtd"
   xmlns:inkscape="http://www.inkscape.org/namespaces/inkscape"
   width="210mm"
   height="297mm"
   viewBox="0 0 210 297"
   version="1.1"
   id="svg8"
   inkscape:version="1.0.1 (3bc2e813f5, 2020-09-07)"
   sodipodi:docname="teikning.svg">
  <defs
     id="defs2">
    <rect
       x="35.012308"
       y="203.65938"
       width="103.43331"
       height="17.10525"
       id="rect2850" />
    <linearGradient
       id="linearGradient2779"
       osb:paint="solid">
      <stop
         style="stop-color:#000000;stop-opacity:1;"
         offset="0"
         id="stop2777" />
    </linearGradient>
    <linearGradient
       inkscape:collect="always"
       xlink:href="#linearGradient2779"
       id="linearGradient2781"
       x1="13.474642"
       y1="150.59524"
       x2="163.73964"
       y2="150.59524"
       gradientUnits="userSpaceOnUse" />
  </defs>
  <sodipodi:namedview
     id="base"
     pagecolor="#ffffff"
     bordercolor="#666666"
     borderopacity="1.0"
     inkscape:pageopacity="0.0"
     inkscape:pageshadow="2"
     inkscape:zoom="0.98994949"
     inkscape:cx="378.8175"
     inkscape:cy="618.40347"
     inkscape:document-units="mm"
     inkscape:current-layer="layer1"
     inkscape:document-rotation="0"
     showgrid="false"
     showborder="false"
     inkscape:window-width="1296"
     inkscape:window-height="1040"
     inkscape:window-x="336"
     inkscape:window-y="0"
     inkscape:window-maximized="0" />
  <metadata
     id="metadata5">
    <rdf:RDF>
      <cc:Work
         rdf:about="">
        <dc:format>image/svg+xml</dc:format>
        <dc:type
           rdf:resource="http://purl.org/dc/dcmitype/StillImage" />
        <dc:title></dc:title>
      </cc:Work>
    </rdf:RDF>
  </metadata>
  <g
     inkscape:label="Lag 1"
     inkscape:groupmode="layer"
     id="layer1">
    <text
       xml:space="preserve"
       id="text2848"
       style="fill:#ffffff;fill-opacity:1;line-height:1.25;stroke:none;font-family:sans-serif;font-style:italic;font-weight:bold;font-size:10.58333333px;white-space:pre;shape-inside:url(#rect2850);-inkscape-font-specification:'sans-serif Bold Italic';font-stretch:normal;font-variant:normal;" />
    <g
       id="g2870">
      <g
         id="g2846">
        <rect
           style="fill:#800000;stroke-width:3;stroke-miterlimit:4;stroke-dasharray:none;stroke:url(#linearGradient2781)"
           id="rect10"
           width="150"
           height="150"
           x="13.607142"
           y="75.595238"
           ry="25.702391" />
        <g
           id="g2835"
           transform="translate(185.75232,106.90781)">
          <g
             id="g2824"
             transform="translate(8.8198944,12.561668)">
            <path
               style="fill:#ff0000;stroke:#000000;stroke-width:0.264583px;stroke-linecap:butt;stroke-linejoin:miter;stroke-opacity:1"
               d="m -145.39462,37.417734 c 0.54243,43.726131 29.65574,35.280993 37.15046,44.366741 v 0 c 39.573109,-22.799749 33.063535,-27.54247 35.01231,-44.63401 -0.318207,-14.31968 -7.828221,-24.521082 -16.570711,-31.537805 -7.953658,-9.7020554 -8.801802,-22.320954 -21.381559,-29.399647 3.16952,12.028061 1.00789,16.4022681 -18.97613,29.6669166 -11.87839,11.0920254 -12.87945,12.0137464 -15.23437,31.5378044 z"
               id="path2803"
               sodipodi:nodetypes="cccccccc" />
            <path
               style="fill:#ff0000;stroke:#000000;stroke-width:0.264583px;stroke-linecap:butt;stroke-linejoin:miter;stroke-opacity:1"
               d="m -134.70384,-22.985179 c 16.16825,16.45691 -5.98089,16.362257 -8.81989,36.883193 -6.50261,-16.71737 11.21826,-22.419471 8.81989,-36.883193 z"
               id="path2807"
               sodipodi:nodetypes="ccc" />
            <path
               style="fill:#ff0000;stroke:#000000;stroke-width:0.264583px;stroke-linecap:butt;stroke-linejoin:miter;stroke-opacity:1"
               d="m -124.5476,-6.681739 c 10.98394,-18.255807 9.35443,-24.321526 9.35443,-24.321526 -14.22352,18.356178 -5.68627,17.240494 -9.35443,24.321526 z"
               id="path2809"
               sodipodi:nodetypes="ccc" />
            <path
               style="fill:#ff0000;stroke:#000000;stroke-width:0.264583px;stroke-linecap:butt;stroke-linejoin:miter;stroke-opacity:1"
               d="m -88.466216,-28.0633 c 3.55349,12.889248 7.95862,26.5355067 5.3454,33.9432297 -3.60151,-2.21588 -8.54508,2.278592 -5.3454,-33.9432297 z"
               id="path2811"
               sodipodi:nodetypes="ccc" />
            <path
               style="fill:#ffff00;stroke:#000000;stroke-width:0.264583px;stroke-linecap:butt;stroke-linejoin:miter;stroke-opacity:1"
               d="m -107.44235,76.171815 c -11.00974,-0.775729 -29.08671,-12.213017 -33.14142,-26.726954 -2.00995,-7.866293 -5.16577,-19.121564 7.48355,-35.546848 28.33145,-11.3530199 24.08321,-20.2976418 26.99422,-22.4506379 5.5858,4.4278131 3.69818,14.8303924 22.183368,28.8651079 5.43135,9.162175 8.938914,22.929362 1.870887,35.546847 -3.405154,11.490455 -15.72229,15.781099 -25.390605,20.312485 z"
               id="path2815"
               sodipodi:nodetypes="ccccccc" />
          </g>
          <path
             style="fill:#ffffff;stroke:#000000;stroke-width:0.264583px;stroke-linecap:butt;stroke-linejoin:miter;stroke-opacity:1"
             d="m -102.6315,81.784475 c -8.27133,-1.233701 -16.87598,-1.276989 -20.31248,-19.777946 -0.88776,-8.446177 -3.31669,-15.693668 1.87089,-28.865107 0.25414,11.17703 2.12568,11.840937 3.74177,14.165284 -1.43895,-7.04823 1.10427,-11.109833 5.34539,-13.898015 0.77213,9.888891 2.91223,11.569914 5.07812,13.096205 -1.27252,-5.969019 2.25732,-11.938039 5.07812,-17.907058 -0.90023,11.252923 2.851172,26.821423 3.207235,19.510677 0.33677,-6.914601 4.087022,-16.442417 4.543581,-12.561668 -1.430393,11.160164 2.508391,12.476837 5.078122,16.30344 -5.286974,-10.338535 -1.402048,-13.033958 -0.26727,-18.708866 0.855098,5.605665 1.561685,11.330138 5.87993,14.165286 3.216755,2.129342 3.585259,10.09413 1.870886,16.57071 -2.157331,12.624611 -11.234845,15.812608 -21.114294,17.907058 z"
             id="path2826"
             sodipodi:nodetypes="cccccccscccccc" />
        </g>
      </g>
      <text
         xml:space="preserve"
         style="font-style:italic;font-weight:bold;font-size:18.4833px;line-height:1.25;font-family:'Sitka Banner';-inkscape-font-specification:'Sitka Banner Bold Italic';stroke-width:0.462083"
         x="72.828377"
         y="191.79686"
         id="text2856"
         transform="scale(0.87232504,1.1463617)"><tspan
           sodipodi:role="line"
           id="tspan2854"
           x="72.828377"
           y="191.79686"
           style="fill:#ffffff;stroke-width:0.462083">Daníel</tspan></text>
    </g>
  </g>
</svg>
